M48
INCH,TZ
T1C0.025
T2C0.032
T3C0.039
T4C0.040
T5C0.091
%
G90
G05
T1
X5.1334Y-4.1081
X5.2853Y-4.3775
T2
X4.6Y-3.7
X4.6Y-4.
X4.6Y-4.1
X4.6Y-4.4
X4.7Y-3.7
X4.7Y-4.
X4.7Y-4.1
X4.7Y-4.4
X4.8Y-3.7
X4.8Y-4.
X4.8Y-4.15
X4.8Y-4.25
X4.8Y-4.35
X4.8Y-4.45
X4.9Y-3.8083
X4.9Y-3.9083
X4.9Y-4.
X4.9Y-4.1
X4.9409Y-4.35
X4.9409Y-4.45
X4.9878Y-3.8386
X5.Y-3.95
X5.Y-4.05
X5.Y-4.15
X5.Y-4.25
X5.0917Y-4.4
X5.1917Y-4.4
X5.2878Y-3.8386
X5.3Y-3.95
X5.3Y-4.05
X5.3Y-4.15
X5.3Y-4.25
X5.35Y-3.65
X5.35Y-3.75
X5.35Y-4.4
X5.4106Y-3.937
X5.45Y-3.75
X5.45Y-4.4
X5.5106Y-3.937
X5.55Y-4.4
X5.6Y-3.65
X5.6Y-3.75
X5.6142Y-3.85
X5.6142Y-3.95
X5.65Y-4.4
X5.85Y-3.7
X5.85Y-3.8
X5.85Y-3.9
X5.85Y-4.
X5.85Y-4.1
X5.85Y-4.2
X5.85Y-4.3
X5.85Y-4.4
T3
X4.3228Y-3.8167
X4.3228Y-3.9167
X4.3228Y-3.9967
X4.3228Y-4.0967
T4
X4.9591Y-3.6614
X5.0591Y-3.6614
X5.1591Y-3.6614
T5
X4.2178Y-3.6767
X4.2178Y-4.2167
T0
M30
