M48
INCH,TZ
T1C0.025
T2C0.032
T3C0.039
T4C0.040
T5C0.091
%
G90
G05
T1
X51334Y-41081
X52853Y-43775
T2
X46000Y-37000
X46000Y-40000
X46000Y-41000
X46000Y-44000
X47000Y-37000
X47000Y-40000
X47000Y-41000
X47000Y-44000
X48000Y-37000
X48000Y-40000
X48000Y-41500
X48000Y-42500
X48000Y-43500
X48000Y-44500
X49000Y-38083
X49000Y-39083
X49000Y-40000
X49000Y-41000
X49409Y-43500
X49409Y-44500
X49878Y-38386
X50000Y-39500
X50000Y-40500
X50000Y-41500
X50000Y-42500
X50917Y-44000
X51917Y-44000
X52878Y-38386
X53000Y-39500
X53000Y-40500
X53000Y-41500
X53000Y-42500
X53500Y-36500
X53500Y-37500
X53500Y-44000
X54106Y-39370
X54500Y-37500
X54500Y-44000
X55106Y-39370
X55500Y-44000
X56000Y-36500
X56000Y-37500
X56142Y-38500
X56142Y-39500
X56500Y-44000
X58500Y-37000
X58500Y-38000
X58500Y-39000
X58500Y-40000
X58500Y-41000
X58500Y-42000
X58500Y-43000
X58500Y-44000
T3
X43228Y-38167
X43228Y-39167
X43228Y-39967
X43228Y-40967
T4
X49591Y-36614
X50591Y-36614
X51591Y-36614
T5
X42178Y-36767
X42178Y-42167
T0
M30
