G04 (created by PCBNEW (2013-mar-13)-testing) date Mon 15 Sep 2014 10:31:25 PM PDT*
%MOIN*%
G04 Gerber Fmt 3.4, Leading zero omitted, Abs format*
%FSLAX34Y34*%
G01*
G70*
G90*
G04 APERTURE LIST*
%ADD10C,0.005906*%
%ADD11R,0.055000X0.055000*%
%ADD12C,0.055000*%
%ADD13R,0.090600X0.019700*%
%ADD14R,0.098400X0.078700*%
%ADD15C,0.066000*%
%ADD16R,0.090000X0.062000*%
%ADD17O,0.090000X0.062000*%
%ADD18R,0.060000X0.060000*%
%ADD19C,0.060000*%
%ADD20C,0.059100*%
%ADD21C,0.118100*%
%ADD22C,0.035000*%
%ADD23C,0.020000*%
%ADD24C,0.010000*%
G04 APERTURE END LIST*
G54D10*
G54D11*
X56000Y-36500D03*
G54D12*
X56000Y-37500D03*
X50917Y-44000D03*
X51917Y-44000D03*
G54D13*
X44358Y-41889D03*
X44358Y-42204D03*
X44358Y-42519D03*
X44358Y-42834D03*
X44358Y-43149D03*
G54D14*
X44319Y-40767D03*
X42154Y-40767D03*
X44319Y-44271D03*
X42154Y-44271D03*
G54D11*
X46000Y-37000D03*
G54D12*
X46000Y-40000D03*
G54D11*
X46000Y-41000D03*
G54D12*
X46000Y-44000D03*
G54D11*
X47000Y-41000D03*
G54D12*
X47000Y-44000D03*
G54D11*
X49877Y-38385D03*
G54D12*
X52877Y-38385D03*
G54D15*
X54106Y-39370D03*
X55106Y-39370D03*
G54D11*
X48000Y-37000D03*
G54D12*
X48000Y-40000D03*
G54D11*
X47000Y-40000D03*
G54D12*
X47000Y-37000D03*
G54D15*
X49409Y-43500D03*
X49409Y-44500D03*
G54D16*
X50000Y-39500D03*
G54D17*
X50000Y-40500D03*
X50000Y-41500D03*
X50000Y-42500D03*
X53000Y-42500D03*
X53000Y-41500D03*
X53000Y-40500D03*
X53000Y-39500D03*
G54D18*
X49590Y-36614D03*
G54D19*
X50590Y-36614D03*
X51590Y-36614D03*
G54D20*
X43228Y-40966D03*
X43228Y-39966D03*
X43228Y-39166D03*
X43228Y-38166D03*
G54D21*
X42178Y-42166D03*
X42178Y-36766D03*
G54D11*
X58500Y-37000D03*
G54D12*
X58500Y-38000D03*
X58500Y-39000D03*
X58500Y-40000D03*
X58500Y-41000D03*
X58500Y-42000D03*
X58500Y-43000D03*
X58500Y-44000D03*
G54D11*
X53500Y-44000D03*
G54D12*
X54500Y-44000D03*
X55500Y-44000D03*
X56500Y-44000D03*
X49000Y-38082D03*
X49000Y-39082D03*
X49000Y-40000D03*
X49000Y-41000D03*
X48000Y-41500D03*
X48000Y-42500D03*
X56141Y-39500D03*
X56141Y-38500D03*
X48000Y-43500D03*
X48000Y-44500D03*
G54D11*
X53500Y-36500D03*
G54D12*
X53500Y-37500D03*
X54500Y-37500D03*
G54D22*
X52853Y-43774D03*
X51334Y-41081D03*
G54D23*
X48609Y-37134D02*
X48475Y-37000D01*
X51069Y-37134D02*
X48609Y-37134D01*
X51590Y-36614D02*
X51069Y-37134D01*
X48000Y-37000D02*
X48475Y-37000D01*
X46000Y-37000D02*
X46475Y-37000D01*
X47000Y-37000D02*
X46475Y-37000D01*
X53103Y-43524D02*
X52853Y-43774D01*
X54024Y-43524D02*
X53103Y-43524D01*
X54500Y-44000D02*
X54024Y-43524D01*
X56500Y-43000D02*
X58500Y-43000D01*
X55500Y-44000D02*
X56500Y-43000D01*
X42154Y-40767D02*
X42846Y-40767D01*
X44319Y-40767D02*
X43626Y-40767D01*
X44319Y-44271D02*
X42154Y-44271D01*
X43228Y-40966D02*
X43042Y-40966D01*
X43704Y-42566D02*
X43704Y-43149D01*
X42957Y-41819D02*
X43704Y-42566D01*
X42957Y-41051D02*
X42957Y-41819D01*
X43042Y-40966D02*
X42957Y-41051D01*
X43042Y-40966D02*
X43042Y-40898D01*
X42977Y-40898D02*
X43042Y-40898D01*
X42846Y-40767D02*
X42977Y-40898D01*
X43495Y-40898D02*
X43626Y-40767D01*
X43042Y-40898D02*
X43495Y-40898D01*
X45282Y-44000D02*
X45011Y-44271D01*
X46000Y-44000D02*
X45282Y-44000D01*
X44319Y-44271D02*
X45011Y-44271D01*
X44357Y-43149D02*
X44125Y-43149D01*
X44125Y-43149D02*
X43704Y-43149D01*
X44319Y-43343D02*
X44319Y-44271D01*
X44125Y-43149D02*
X44319Y-43343D01*
X52692Y-43224D02*
X51917Y-44000D01*
X54724Y-43224D02*
X52692Y-43224D01*
X55500Y-44000D02*
X54724Y-43224D01*
G54D24*
X55236Y-39500D02*
X55106Y-39370D01*
X56141Y-39500D02*
X55236Y-39500D01*
X47000Y-40000D02*
X48000Y-40000D01*
X45267Y-42519D02*
X44357Y-42519D01*
X46574Y-41212D02*
X45267Y-42519D01*
X46574Y-41000D02*
X46574Y-41212D01*
X47000Y-41000D02*
X46574Y-41000D01*
X44357Y-42204D02*
X44961Y-42204D01*
X46574Y-40425D02*
X46000Y-41000D01*
X48574Y-40425D02*
X46574Y-40425D01*
X49000Y-40000D02*
X48574Y-40425D01*
X45740Y-41425D02*
X44961Y-42204D01*
X46000Y-41425D02*
X45740Y-41425D01*
X46000Y-41000D02*
X46000Y-41425D01*
X52252Y-42000D02*
X51334Y-41081D01*
X58500Y-42000D02*
X52252Y-42000D01*
X45574Y-41275D02*
X44961Y-41889D01*
X45574Y-40425D02*
X45574Y-41275D01*
X46000Y-40000D02*
X45574Y-40425D01*
X44357Y-41889D02*
X44961Y-41889D01*
X56471Y-40028D02*
X58500Y-38000D01*
X52644Y-40028D02*
X56471Y-40028D01*
X52397Y-40276D02*
X52644Y-40028D01*
X52397Y-40695D02*
X52397Y-40276D01*
X52741Y-41039D02*
X52397Y-40695D01*
X53000Y-41039D02*
X52741Y-41039D01*
X53000Y-41500D02*
X53000Y-41039D01*
X57000Y-40500D02*
X53000Y-40500D01*
X58500Y-39000D02*
X57000Y-40500D01*
X48000Y-44500D02*
X49409Y-44500D01*
X50917Y-44000D02*
X50977Y-44059D01*
X58071Y-44428D02*
X58500Y-44000D01*
X51346Y-44428D02*
X58071Y-44428D01*
X50977Y-44059D02*
X51346Y-44428D01*
G54D23*
X53000Y-39500D02*
X53000Y-38989D01*
X49641Y-38989D02*
X50657Y-38989D01*
X49000Y-38347D02*
X49641Y-38989D01*
X49000Y-38082D02*
X49000Y-38347D01*
X50657Y-38989D02*
X53000Y-38989D01*
X50657Y-43260D02*
X50417Y-43500D01*
X50657Y-38989D02*
X50657Y-43260D01*
X49409Y-43500D02*
X50417Y-43500D01*
X50417Y-43500D02*
X50917Y-44000D01*
X53500Y-36500D02*
X56000Y-36500D01*
M02*
